<?xml version="1.0" encoding="UTF-8" standalone="no"?>
<!DOCTYPE svg PUBLIC "-//W3C//DTD SVG 1.1//EN"
 "http://www.w3.org/Graphics/SVG/1.1/DTD/svg11.dtd">
<!-- Generated by graphviz version 2.47.3 (20210619.1520)
 -->
<!-- Title: dependencies Pages: 1 -->
<svg width="334pt" height="247pt"
 viewBox="0.00 0.00 334.00 246.80" xmlns="http://www.w3.org/2000/svg" xmlns:xlink="http://www.w3.org/1999/xlink">
<g id="graph0" class="graph" transform="scale(1 1) rotate(0) translate(4 242.8)">
<title>dependencies</title>
<polygon fill="white" stroke="transparent" points="-4,4 -4,-242.8 330,-242.8 330,4 -4,4"/>
<text text-anchor="middle" x="163" y="-8.2" font-family="sans-serif" font-size="14.00">dependencies</text>
<g id="clust1" class="cluster">
<title>cluster_DriverModule</title>
<polygon fill="none" stroke="black" stroke-dasharray="1,5" points="8,-32.8 8,-230.8 318,-230.8 318,-32.8 8,-32.8"/>
</g>
<g id="clust6" class="cluster">
<title>cluster_DriverModule_providers</title>
<polygon fill="none" stroke="black" points="16,-40.8 16,-92.8 310,-92.8 310,-40.8 16,-40.8"/>
</g>
<g id="clust4" class="cluster">
<title>cluster_DriverModule_exports</title>
<polygon fill="none" stroke="black" points="106,-170.8 106,-222.8 220,-222.8 220,-170.8 106,-170.8"/>
</g>
<!-- DriverService  -->
<g id="node1" class="node">
<title>DriverService </title>
<polygon fill="#fb8072" stroke="black" points="212.01,-214.8 113.99,-214.8 113.99,-178.8 212.01,-178.8 212.01,-214.8"/>
<text text-anchor="middle" x="163" y="-192.6" font-family="Times,serif" font-size="14.00">DriverService </text>
</g>
<!-- DriverModule -->
<g id="node2" class="node">
<title>DriverModule</title>
<polygon fill="#8dd3c7" stroke="black" points="211.08,-149.8 208.08,-153.8 187.08,-153.8 184.08,-149.8 114.92,-149.8 114.92,-113.8 211.08,-113.8 211.08,-149.8"/>
<text text-anchor="middle" x="163" y="-127.6" font-family="Times,serif" font-size="14.00">DriverModule</text>
</g>
<!-- DriverModule&#45;&gt;DriverService  -->
<g id="edge1" class="edge">
<title>DriverModule&#45;&gt;DriverService </title>
<path fill="none" stroke="black" stroke-dasharray="5,2" d="M163,-149.91C163,-149.91 163,-168.79 163,-168.79"/>
<polygon fill="black" stroke="black" points="159.5,-168.79 163,-178.79 166.5,-168.79 159.5,-168.79"/>
</g>
<!-- DriverService -->
<g id="node3" class="node">
<title>DriverService</title>
<ellipse fill="#fdb462" stroke="black" cx="237" cy="-66.8" rx="65.38" ry="18"/>
<text text-anchor="middle" x="237" y="-62.6" font-family="Times,serif" font-size="14.00">DriverService</text>
</g>
<!-- DriverService&#45;&gt;DriverModule -->
<g id="edge2" class="edge">
<title>DriverService&#45;&gt;DriverModule</title>
<path fill="none" stroke="black" d="M191.42,-79.95C191.42,-79.95 191.42,-103.49 191.42,-103.49"/>
<polygon fill="black" stroke="black" points="187.92,-103.49 191.42,-113.49 194.92,-103.49 187.92,-103.49"/>
</g>
<!-- LocalStrategy -->
<g id="node4" class="node">
<title>LocalStrategy</title>
<ellipse fill="#fdb462" stroke="black" cx="89" cy="-66.8" rx="65.41" ry="18"/>
<text text-anchor="middle" x="89" y="-62.6" font-family="Times,serif" font-size="14.00">LocalStrategy</text>
</g>
<!-- LocalStrategy&#45;&gt;DriverModule -->
<g id="edge3" class="edge">
<title>LocalStrategy&#45;&gt;DriverModule</title>
<path fill="none" stroke="black" d="M134.58,-79.95C134.58,-79.95 134.58,-103.49 134.58,-103.49"/>
<polygon fill="black" stroke="black" points="131.08,-103.49 134.58,-113.49 138.08,-103.49 131.08,-103.49"/>
</g>
</g>
</svg>
