<?xml version="1.0" encoding="UTF-8" standalone="no"?>
<!DOCTYPE svg PUBLIC "-//W3C//DTD SVG 1.1//EN"
 "http://www.w3.org/Graphics/SVG/1.1/DTD/svg11.dtd">
<!-- Generated by graphviz version 2.47.3 (20210619.1520)
 -->
<!-- Title: dependencies Pages: 1 -->
<svg width="1663pt" height="174pt"
 viewBox="0.00 0.00 1663.00 173.80" xmlns="http://www.w3.org/2000/svg" xmlns:xlink="http://www.w3.org/1999/xlink">
<g id="graph0" class="graph" transform="scale(1 1) rotate(0) translate(4 169.8)">
<title>dependencies</title>
<polygon fill="white" stroke="transparent" points="-4,4 -4,-169.8 1659,-169.8 1659,4 -4,4"/>
<text text-anchor="middle" x="827.5" y="-8.2" font-family="sans-serif" font-size="14.00">dependencies</text>
<g id="clust1" class="cluster">
<title>cluster_AppModule</title>
<polygon fill="none" stroke="black" stroke-dasharray="1,5" points="8,-32.8 8,-157.8 1647,-157.8 1647,-32.8 8,-32.8"/>
</g>
<g id="clust6" class="cluster">
<title>cluster_AppModule_providers</title>
<polygon fill="none" stroke="black" points="1509,-40.8 1509,-92.8 1639,-92.8 1639,-40.8 1509,-40.8"/>
</g>
<g id="clust3" class="cluster">
<title>cluster_AppModule_imports</title>
<polygon fill="none" stroke="black" points="16,-40.8 16,-92.8 1501,-92.8 1501,-40.8 16,-40.8"/>
</g>
<!-- CustomerModule -->
<g id="node1" class="node">
<title>CustomerModule</title>
<polygon fill="#8dd3c7" stroke="black" points="1492.99,-84.8 1489.99,-88.8 1468.99,-88.8 1465.99,-84.8 1379.01,-84.8 1379.01,-48.8 1492.99,-48.8 1492.99,-84.8"/>
<text text-anchor="middle" x="1436" y="-62.6" font-family="Times,serif" font-size="14.00">CustomerModule</text>
</g>
<!-- AppModule -->
<g id="node13" class="node">
<title>AppModule</title>
<polygon fill="#8dd3c7" stroke="black" points="807.66,-149.8 804.66,-153.8 783.66,-153.8 780.66,-149.8 724.34,-149.8 724.34,-113.8 807.66,-113.8 807.66,-149.8"/>
<text text-anchor="middle" x="766" y="-127.6" font-family="Times,serif" font-size="14.00">AppModule</text>
</g>
<!-- CustomerModule&#45;&gt;AppModule -->
<g id="edge1" class="edge">
<title>CustomerModule&#45;&gt;AppModule</title>
<path fill="none" stroke="black" d="M1436,-84.84C1436,-106.46 1436,-139.8 1436,-139.8 1436,-139.8 817.66,-139.8 817.66,-139.8"/>
<polygon fill="black" stroke="black" points="817.66,-136.3 807.66,-139.8 817.66,-143.3 817.66,-136.3"/>
</g>
<!-- DeliveryModule -->
<g id="node2" class="node">
<title>DeliveryModule</title>
<polygon fill="#8dd3c7" stroke="black" points="1361.03,-84.8 1358.03,-88.8 1337.03,-88.8 1334.03,-84.8 1252.97,-84.8 1252.97,-48.8 1361.03,-48.8 1361.03,-84.8"/>
<text text-anchor="middle" x="1307" y="-62.6" font-family="Times,serif" font-size="14.00">DeliveryModule</text>
</g>
<!-- DeliveryModule&#45;&gt;AppModule -->
<g id="edge2" class="edge">
<title>DeliveryModule&#45;&gt;AppModule</title>
<path fill="none" stroke="black" d="M1307,-85.02C1307,-105.17 1307,-134.8 1307,-134.8 1307,-134.8 818,-134.8 818,-134.8"/>
<polygon fill="black" stroke="black" points="818,-131.3 808,-134.8 818,-138.3 818,-131.3"/>
</g>
<!-- DriverModule -->
<g id="node3" class="node">
<title>DriverModule</title>
<polygon fill="#8dd3c7" stroke="black" points="1235.08,-84.8 1232.08,-88.8 1211.08,-88.8 1208.08,-84.8 1138.92,-84.8 1138.92,-48.8 1235.08,-48.8 1235.08,-84.8"/>
<text text-anchor="middle" x="1187" y="-62.6" font-family="Times,serif" font-size="14.00">DriverModule</text>
</g>
<!-- DriverModule&#45;&gt;AppModule -->
<g id="edge3" class="edge">
<title>DriverModule&#45;&gt;AppModule</title>
<path fill="none" stroke="black" d="M1187,-85.02C1187,-103.63 1187,-129.8 1187,-129.8 1187,-129.8 817.91,-129.8 817.91,-129.8"/>
<polygon fill="black" stroke="black" points="817.91,-126.3 807.91,-129.8 817.91,-133.3 817.91,-126.3"/>
</g>
<!-- ExpenseModule -->
<g id="node4" class="node">
<title>ExpenseModule</title>
<polygon fill="#8dd3c7" stroke="black" points="1120.48,-84.8 1117.48,-88.8 1096.48,-88.8 1093.48,-84.8 1013.52,-84.8 1013.52,-48.8 1120.48,-48.8 1120.48,-84.8"/>
<text text-anchor="middle" x="1067" y="-62.6" font-family="Times,serif" font-size="14.00">ExpenseModule</text>
</g>
<!-- ExpenseModule&#45;&gt;AppModule -->
<g id="edge4" class="edge">
<title>ExpenseModule&#45;&gt;AppModule</title>
<path fill="none" stroke="black" d="M1067,-84.83C1067,-101.86 1067,-124.8 1067,-124.8 1067,-124.8 817.85,-124.8 817.85,-124.8"/>
<polygon fill="black" stroke="black" points="817.85,-121.3 807.85,-124.8 817.85,-128.3 817.85,-121.3"/>
</g>
<!-- IncomeStatementModule -->
<g id="node5" class="node">
<title>IncomeStatementModule</title>
<polygon fill="#8dd3c7" stroke="black" points="995.52,-84.8 992.52,-88.8 971.52,-88.8 968.52,-84.8 838.48,-84.8 838.48,-48.8 995.52,-48.8 995.52,-84.8"/>
<text text-anchor="middle" x="917" y="-62.6" font-family="Times,serif" font-size="14.00">IncomeStatementModule</text>
</g>
<!-- IncomeStatementModule&#45;&gt;AppModule -->
<g id="edge5" class="edge">
<title>IncomeStatementModule&#45;&gt;AppModule</title>
<path fill="none" stroke="black" d="M917,-85.04C917,-100.37 917,-119.8 917,-119.8 917,-119.8 817.66,-119.8 817.66,-119.8"/>
<polygon fill="black" stroke="black" points="817.66,-116.3 807.66,-119.8 817.66,-123.3 817.66,-116.3"/>
</g>
<!-- ManagerModule -->
<g id="node6" class="node">
<title>ManagerModule</title>
<polygon fill="#8dd3c7" stroke="black" points="820.8,-84.8 817.8,-88.8 796.8,-88.8 793.8,-84.8 711.2,-84.8 711.2,-48.8 820.8,-48.8 820.8,-84.8"/>
<text text-anchor="middle" x="766" y="-62.6" font-family="Times,serif" font-size="14.00">ManagerModule</text>
</g>
<!-- ManagerModule&#45;&gt;AppModule -->
<g id="edge6" class="edge">
<title>ManagerModule&#45;&gt;AppModule</title>
<path fill="none" stroke="black" d="M766,-84.91C766,-84.91 766,-103.79 766,-103.79"/>
<polygon fill="black" stroke="black" points="762.5,-103.79 766,-113.79 769.5,-103.79 762.5,-103.79"/>
</g>
<!-- OrderModule -->
<g id="node7" class="node">
<title>OrderModule</title>
<polygon fill="#8dd3c7" stroke="black" points="693.19,-84.8 690.19,-88.8 669.19,-88.8 666.19,-84.8 600.81,-84.8 600.81,-48.8 693.19,-48.8 693.19,-84.8"/>
<text text-anchor="middle" x="647" y="-62.6" font-family="Times,serif" font-size="14.00">OrderModule</text>
</g>
<!-- OrderModule&#45;&gt;AppModule -->
<g id="edge7" class="edge">
<title>OrderModule&#45;&gt;AppModule</title>
<path fill="none" stroke="black" d="M647,-85.04C647,-100.37 647,-119.8 647,-119.8 647,-119.8 714.05,-119.8 714.05,-119.8"/>
<polygon fill="black" stroke="black" points="714.05,-123.3 724.05,-119.8 714.05,-116.3 714.05,-123.3"/>
</g>
<!-- ProductModule -->
<g id="node8" class="node">
<title>ProductModule</title>
<polygon fill="#8dd3c7" stroke="black" points="582.6,-84.8 579.6,-88.8 558.6,-88.8 555.6,-84.8 479.4,-84.8 479.4,-48.8 582.6,-48.8 582.6,-84.8"/>
<text text-anchor="middle" x="531" y="-62.6" font-family="Times,serif" font-size="14.00">ProductModule</text>
</g>
<!-- ProductModule&#45;&gt;AppModule -->
<g id="edge8" class="edge">
<title>ProductModule&#45;&gt;AppModule</title>
<path fill="none" stroke="black" d="M531,-84.83C531,-101.86 531,-124.8 531,-124.8 531,-124.8 714.26,-124.8 714.26,-124.8"/>
<polygon fill="black" stroke="black" points="714.26,-128.3 724.26,-124.8 714.26,-121.3 714.26,-128.3"/>
</g>
<!-- PurchaseModule -->
<g id="node9" class="node">
<title>PurchaseModule</title>
<polygon fill="#8dd3c7" stroke="black" points="461.08,-84.8 458.08,-88.8 437.08,-88.8 434.08,-84.8 350.92,-84.8 350.92,-48.8 461.08,-48.8 461.08,-84.8"/>
<text text-anchor="middle" x="406" y="-62.6" font-family="Times,serif" font-size="14.00">PurchaseModule</text>
</g>
<!-- PurchaseModule&#45;&gt;AppModule -->
<g id="edge9" class="edge">
<title>PurchaseModule&#45;&gt;AppModule</title>
<path fill="none" stroke="black" d="M406,-85.02C406,-103.63 406,-129.8 406,-129.8 406,-129.8 714,-129.8 714,-129.8"/>
<polygon fill="black" stroke="black" points="714,-133.3 724,-129.8 714,-126.3 714,-133.3"/>
</g>
<!-- SaleModule -->
<g id="node10" class="node">
<title>SaleModule</title>
<polygon fill="#8dd3c7" stroke="black" points="332.65,-84.8 329.65,-88.8 308.65,-88.8 305.65,-84.8 249.35,-84.8 249.35,-48.8 332.65,-48.8 332.65,-84.8"/>
<text text-anchor="middle" x="291" y="-62.6" font-family="Times,serif" font-size="14.00">SaleModule</text>
</g>
<!-- SaleModule&#45;&gt;AppModule -->
<g id="edge10" class="edge">
<title>SaleModule&#45;&gt;AppModule</title>
<path fill="none" stroke="black" d="M291,-85.02C291,-105.17 291,-134.8 291,-134.8 291,-134.8 714.26,-134.8 714.26,-134.8"/>
<polygon fill="black" stroke="black" points="714.26,-138.3 724.26,-134.8 714.26,-131.3 714.26,-138.3"/>
</g>
<!-- StoreModule -->
<g id="node11" class="node">
<title>StoreModule</title>
<polygon fill="#8dd3c7" stroke="black" points="231.6,-84.8 228.6,-88.8 207.6,-88.8 204.6,-84.8 142.4,-84.8 142.4,-48.8 231.6,-48.8 231.6,-84.8"/>
<text text-anchor="middle" x="187" y="-62.6" font-family="Times,serif" font-size="14.00">StoreModule</text>
</g>
<!-- StoreModule&#45;&gt;AppModule -->
<g id="edge11" class="edge">
<title>StoreModule&#45;&gt;AppModule</title>
<path fill="none" stroke="black" d="M187,-84.84C187,-106.46 187,-139.8 187,-139.8 187,-139.8 713.89,-139.8 713.89,-139.8"/>
<polygon fill="black" stroke="black" points="713.89,-143.3 723.89,-139.8 713.89,-136.3 713.89,-143.3"/>
</g>
<!-- UploadModule -->
<g id="node12" class="node">
<title>UploadModule</title>
<polygon fill="#8dd3c7" stroke="black" points="124.26,-84.8 121.26,-88.8 100.26,-88.8 97.26,-84.8 23.74,-84.8 23.74,-48.8 124.26,-48.8 124.26,-84.8"/>
<text text-anchor="middle" x="74" y="-62.6" font-family="Times,serif" font-size="14.00">UploadModule</text>
</g>
<!-- UploadModule&#45;&gt;AppModule -->
<g id="edge12" class="edge">
<title>UploadModule&#45;&gt;AppModule</title>
<path fill="none" stroke="black" d="M74,-84.89C74,-107.93 74,-144.8 74,-144.8 74,-144.8 714.27,-144.8 714.27,-144.8"/>
<polygon fill="black" stroke="black" points="714.27,-148.3 724.27,-144.8 714.27,-141.3 714.27,-148.3"/>
</g>
<!-- AppService -->
<g id="node14" class="node">
<title>AppService</title>
<ellipse fill="#fdb462" stroke="black" cx="1574" cy="-66.8" rx="56.74" ry="18"/>
<text text-anchor="middle" x="1574" y="-62.6" font-family="Times,serif" font-size="14.00">AppService</text>
</g>
<!-- AppService&#45;&gt;AppModule -->
<g id="edge13" class="edge">
<title>AppService&#45;&gt;AppModule</title>
<path fill="none" stroke="black" d="M1574,-84.89C1574,-107.93 1574,-144.8 1574,-144.8 1574,-144.8 817.74,-144.8 817.74,-144.8"/>
<polygon fill="black" stroke="black" points="817.74,-141.3 807.74,-144.8 817.74,-148.3 817.74,-141.3"/>
</g>
</g>
</svg>
