<?xml version="1.0" encoding="UTF-8" standalone="no"?>
<!DOCTYPE svg PUBLIC "-//W3C//DTD SVG 1.1//EN"
 "http://www.w3.org/Graphics/SVG/1.1/DTD/svg11.dtd">
<!-- Generated by graphviz version 2.47.3 (20210619.1520)
 -->
<!-- Title: dependencies Pages: 1 -->
<svg width="5162pt" height="261pt"
 viewBox="0.00 0.00 5162.00 260.80" xmlns="http://www.w3.org/2000/svg" xmlns:xlink="http://www.w3.org/1999/xlink">
<g id="graph0" class="graph" transform="scale(1 1) rotate(0) translate(4 256.8)">
<title>dependencies</title>
<polygon fill="white" stroke="transparent" points="-4,4 -4,-256.8 5158,-256.8 5158,4 -4,4"/>
<text text-anchor="middle" x="2577" y="-8.2" font-family="sans-serif" font-size="14.00">dependencies</text>
<g id="clust1" class="cluster">
<title>cluster_AppModule</title>
<polygon fill="none" stroke="black" stroke-dasharray="1,5" points="569,-108.8 569,-236.8 2208,-236.8 2208,-108.8 569,-108.8"/>
</g>
<g id="clust3" class="cluster">
<title>cluster_AppModule_imports</title>
<polygon fill="none" stroke="black" points="715,-116.8 715,-168.8 2200,-168.8 2200,-116.8 715,-116.8"/>
</g>
<g id="clust6" class="cluster">
<title>cluster_AppModule_providers</title>
<polygon fill="none" stroke="black" points="577,-116.8 577,-168.8 707,-168.8 707,-116.8 577,-116.8"/>
</g>
<g id="clust7" class="cluster">
<title>cluster_CustomerModule</title>
<polygon fill="none" stroke="black" stroke-dasharray="1,5" points="8,-32.8 8,-100.8 834,-100.8 834,-32.8 8,-32.8"/>
</g>
<g id="clust10" class="cluster">
<title>cluster_CustomerModule_exports</title>
<polygon fill="none" stroke="black" points="554,-40.8 554,-92.8 826,-92.8 826,-40.8 554,-40.8"/>
</g>
<g id="clust12" class="cluster">
<title>cluster_CustomerModule_providers</title>
<polygon fill="none" stroke="black" points="16,-40.8 16,-92.8 546,-92.8 546,-40.8 16,-40.8"/>
</g>
<g id="clust13" class="cluster">
<title>cluster_DeliveryModule</title>
<polygon fill="none" stroke="black" stroke-dasharray="1,5" points="2216,-176.8 2216,-244.8 2530,-244.8 2530,-176.8 2216,-176.8"/>
</g>
<g id="clust16" class="cluster">
<title>cluster_DeliveryModule_exports</title>
<polygon fill="none" stroke="black" points="2396,-184.8 2396,-236.8 2522,-236.8 2522,-184.8 2396,-184.8"/>
</g>
<g id="clust18" class="cluster">
<title>cluster_DeliveryModule_providers</title>
<polygon fill="none" stroke="black" points="2224,-184.8 2224,-236.8 2388,-236.8 2388,-184.8 2224,-184.8"/>
</g>
<g id="clust19" class="cluster">
<title>cluster_DriverModule</title>
<polygon fill="none" stroke="black" stroke-dasharray="1,5" points="842,-32.8 842,-100.8 1274,-100.8 1274,-32.8 842,-32.8"/>
</g>
<g id="clust22" class="cluster">
<title>cluster_DriverModule_exports</title>
<polygon fill="none" stroke="black" points="1152,-40.8 1152,-92.8 1266,-92.8 1266,-40.8 1152,-40.8"/>
</g>
<g id="clust24" class="cluster">
<title>cluster_DriverModule_providers</title>
<polygon fill="none" stroke="black" points="850,-40.8 850,-92.8 1144,-92.8 1144,-40.8 850,-40.8"/>
</g>
<g id="clust25" class="cluster">
<title>cluster_ExpenseModule</title>
<polygon fill="none" stroke="black" stroke-dasharray="1,5" points="2538,-176.8 2538,-244.8 2848,-244.8 2848,-176.8 2538,-176.8"/>
</g>
<g id="clust28" class="cluster">
<title>cluster_ExpenseModule_exports</title>
<polygon fill="none" stroke="black" points="2716,-184.8 2716,-236.8 2840,-236.8 2840,-184.8 2716,-184.8"/>
</g>
<g id="clust30" class="cluster">
<title>cluster_ExpenseModule_providers</title>
<polygon fill="none" stroke="black" points="2546,-184.8 2546,-236.8 2708,-236.8 2708,-184.8 2546,-184.8"/>
</g>
<g id="clust31" class="cluster">
<title>cluster_IncomeStatementModule</title>
<polygon fill="none" stroke="black" stroke-dasharray="1,5" points="2856,-176.8 2856,-244.8 3288,-244.8 3288,-176.8 2856,-176.8"/>
</g>
<g id="clust34" class="cluster">
<title>cluster_IncomeStatementModule_exports</title>
<polygon fill="none" stroke="black" points="3104,-184.8 3104,-236.8 3280,-236.8 3280,-184.8 3104,-184.8"/>
</g>
<g id="clust36" class="cluster">
<title>cluster_IncomeStatementModule_providers</title>
<polygon fill="none" stroke="black" points="2864,-184.8 2864,-236.8 3096,-236.8 3096,-184.8 2864,-184.8"/>
</g>
<g id="clust37" class="cluster">
<title>cluster_ManagerModule</title>
<polygon fill="none" stroke="black" stroke-dasharray="1,5" points="3296,-176.8 3296,-244.8 3970,-244.8 3970,-176.8 3296,-176.8"/>
</g>
<g id="clust40" class="cluster">
<title>cluster_ManagerModule_exports</title>
<polygon fill="none" stroke="black" points="3694,-184.8 3694,-236.8 3962,-236.8 3962,-184.8 3694,-184.8"/>
</g>
<g id="clust42" class="cluster">
<title>cluster_ManagerModule_providers</title>
<polygon fill="none" stroke="black" points="3304,-184.8 3304,-236.8 3686,-236.8 3686,-184.8 3304,-184.8"/>
</g>
<g id="clust43" class="cluster">
<title>cluster_OrderModule</title>
<polygon fill="none" stroke="black" stroke-dasharray="1,5" points="1282,-32.8 1282,-100.8 1440,-100.8 1440,-32.8 1282,-32.8"/>
</g>
<g id="clust48" class="cluster">
<title>cluster_OrderModule_providers</title>
<polygon fill="none" stroke="black" points="1290,-40.8 1290,-92.8 1432,-92.8 1432,-40.8 1290,-40.8"/>
</g>
<g id="clust49" class="cluster">
<title>cluster_ProductModule</title>
<polygon fill="none" stroke="black" stroke-dasharray="1,5" points="3978,-176.8 3978,-244.8 4280,-244.8 4280,-176.8 3978,-176.8"/>
</g>
<g id="clust52" class="cluster">
<title>cluster_ProductModule_exports</title>
<polygon fill="none" stroke="black" points="4150,-184.8 4150,-236.8 4272,-236.8 4272,-184.8 4150,-184.8"/>
</g>
<g id="clust54" class="cluster">
<title>cluster_ProductModule_providers</title>
<polygon fill="none" stroke="black" points="3986,-184.8 3986,-236.8 4142,-236.8 4142,-184.8 3986,-184.8"/>
</g>
<g id="clust55" class="cluster">
<title>cluster_PurchaseModule</title>
<polygon fill="none" stroke="black" stroke-dasharray="1,5" points="4288,-176.8 4288,-244.8 4606,-244.8 4606,-176.8 4288,-176.8"/>
</g>
<g id="clust58" class="cluster">
<title>cluster_PurchaseModule_exports</title>
<polygon fill="none" stroke="black" points="4470,-184.8 4470,-236.8 4598,-236.8 4598,-184.8 4470,-184.8"/>
</g>
<g id="clust60" class="cluster">
<title>cluster_PurchaseModule_providers</title>
<polygon fill="none" stroke="black" points="4296,-184.8 4296,-236.8 4462,-236.8 4462,-184.8 4296,-184.8"/>
</g>
<g id="clust61" class="cluster">
<title>cluster_SaleModule</title>
<polygon fill="none" stroke="black" stroke-dasharray="1,5" points="4614,-176.8 4614,-244.8 4870,-244.8 4870,-176.8 4614,-176.8"/>
</g>
<g id="clust64" class="cluster">
<title>cluster_SaleModule_exports</title>
<polygon fill="none" stroke="black" points="4760,-184.8 4760,-236.8 4862,-236.8 4862,-184.8 4760,-184.8"/>
</g>
<g id="clust66" class="cluster">
<title>cluster_SaleModule_providers</title>
<polygon fill="none" stroke="black" points="4622,-184.8 4622,-236.8 4752,-236.8 4752,-184.8 4622,-184.8"/>
</g>
<g id="clust67" class="cluster">
<title>cluster_StoreModule</title>
<polygon fill="none" stroke="black" stroke-dasharray="1,5" points="4878,-176.8 4878,-244.8 5146,-244.8 5146,-176.8 4878,-176.8"/>
</g>
<g id="clust70" class="cluster">
<title>cluster_StoreModule_exports</title>
<polygon fill="none" stroke="black" points="5030,-184.8 5030,-236.8 5138,-236.8 5138,-184.8 5030,-184.8"/>
</g>
<g id="clust72" class="cluster">
<title>cluster_StoreModule_providers</title>
<polygon fill="none" stroke="black" points="4886,-184.8 4886,-236.8 5022,-236.8 5022,-184.8 4886,-184.8"/>
</g>
<g id="clust73" class="cluster">
<title>cluster_UploadModule</title>
<polygon fill="none" stroke="black" stroke-dasharray="1,5" points="1448,-32.8 1448,-100.8 1616,-100.8 1616,-32.8 1448,-32.8"/>
</g>
<g id="clust78" class="cluster">
<title>cluster_UploadModule_providers</title>
<polygon fill="none" stroke="black" points="1456,-40.8 1456,-92.8 1608,-92.8 1608,-40.8 1456,-40.8"/>
</g>
<!-- CustomerModule -->
<g id="node1" class="node">
<title>CustomerModule</title>
<polygon fill="#8dd3c7" stroke="black" points="836.99,-160.8 833.99,-164.8 812.99,-164.8 809.99,-160.8 723.01,-160.8 723.01,-124.8 836.99,-124.8 836.99,-160.8"/>
<text text-anchor="middle" x="780" y="-138.6" font-family="Times,serif" font-size="14.00">CustomerModule</text>
</g>
<!-- AppModule -->
<g id="node13" class="node">
<title>AppModule</title>
<polygon fill="#8dd3c7" stroke="black" points="1419.66,-228.8 1416.66,-232.8 1395.66,-232.8 1392.66,-228.8 1336.34,-228.8 1336.34,-192.8 1419.66,-192.8 1419.66,-228.8"/>
<text text-anchor="middle" x="1378" y="-206.6" font-family="Times,serif" font-size="14.00">AppModule</text>
</g>
<!-- CustomerModule&#45;&gt;AppModule -->
<g id="edge1" class="edge">
<title>CustomerModule&#45;&gt;AppModule</title>
<path fill="none" stroke="black" d="M780,-160.81C780,-183.29 780,-218.8 780,-218.8 780,-218.8 1325.95,-218.8 1325.95,-218.8"/>
<polygon fill="black" stroke="black" points="1325.95,-222.3 1335.95,-218.8 1325.95,-215.3 1325.95,-222.3"/>
</g>
<!-- CustomerService  -->
<g id="node15" class="node">
<title>CustomerService </title>
<polygon fill="#fb8072" stroke="black" points="817.92,-84.8 702.08,-84.8 702.08,-48.8 817.92,-48.8 817.92,-84.8"/>
<text text-anchor="middle" x="760" y="-62.6" font-family="Times,serif" font-size="14.00">CustomerService </text>
</g>
<!-- CustomerModule&#45;&gt;CustomerService  -->
<g id="edge14" class="edge">
<title>CustomerModule&#45;&gt;CustomerService </title>
<path fill="none" stroke="black" stroke-dasharray="5,2" d="M802.13,-124.79C802.13,-124.79 802.13,-94.95 802.13,-94.95"/>
<polygon fill="black" stroke="black" points="805.63,-94.95 802.13,-84.95 798.63,-94.95 805.63,-94.95"/>
</g>
<!-- JwtSecret1Service  -->
<g id="node16" class="node">
<title>JwtSecret1Service </title>
<polygon fill="#fb8072" stroke="black" points="684.4,-84.8 561.6,-84.8 561.6,-48.8 684.4,-48.8 684.4,-84.8"/>
<text text-anchor="middle" x="623" y="-62.6" font-family="Times,serif" font-size="14.00">JwtSecret1Service </text>
</g>
<!-- CustomerModule&#45;&gt;JwtSecret1Service  -->
<g id="edge15" class="edge">
<title>CustomerModule&#45;&gt;JwtSecret1Service </title>
<path fill="none" stroke="black" stroke-dasharray="5,2" d="M786.31,-124.48C786.31,-116.01 786.31,-107.8 786.31,-107.8 786.31,-107.8 634.91,-107.8 634.91,-107.8 634.91,-107.8 634.91,-94.9 634.91,-94.9"/>
<polygon fill="black" stroke="black" points="638.41,-94.9 634.91,-84.9 631.41,-94.9 638.41,-94.9"/>
</g>
<!-- DeliveryModule -->
<g id="node2" class="node">
<title>DeliveryModule</title>
<polygon fill="#8dd3c7" stroke="black" points="1306.03,-160.8 1303.03,-164.8 1282.03,-164.8 1279.03,-160.8 1197.97,-160.8 1197.97,-124.8 1306.03,-124.8 1306.03,-160.8"/>
<text text-anchor="middle" x="1252" y="-138.6" font-family="Times,serif" font-size="14.00">DeliveryModule</text>
</g>
<!-- DeliveryModule&#45;&gt;AppModule -->
<g id="edge2" class="edge">
<title>DeliveryModule&#45;&gt;AppModule</title>
<path fill="none" stroke="black" d="M1279.13,-160.83C1279.13,-177.2 1279.13,-198.8 1279.13,-198.8 1279.13,-198.8 1326.07,-198.8 1326.07,-198.8"/>
<polygon fill="black" stroke="black" points="1326.07,-202.3 1336.07,-198.8 1326.07,-195.3 1326.07,-202.3"/>
</g>
<!-- DeliveryService  -->
<g id="node20" class="node">
<title>DeliveryService </title>
<polygon fill="#fb8072" stroke="black" points="2514.46,-228.8 2403.54,-228.8 2403.54,-192.8 2514.46,-192.8 2514.46,-228.8"/>
<text text-anchor="middle" x="2459" y="-206.6" font-family="Times,serif" font-size="14.00">DeliveryService </text>
</g>
<!-- DeliveryModule&#45;&gt;DeliveryService  -->
<g id="edge19" class="edge">
<title>DeliveryModule&#45;&gt;DeliveryService </title>
<path fill="none" stroke="black" stroke-dasharray="5,2" d="M1224.87,-160.98C1224.87,-173.84 1224.87,-188.8 1224.87,-188.8 1224.87,-188.8 2459,-188.8 2459,-188.8 2459,-188.8 2459,-189.18 2459,-189.18"/>
<polygon fill="black" stroke="black" points="2455.5,-182.63 2459,-192.63 2462.5,-182.63 2455.5,-182.63"/>
</g>
<!-- DriverModule -->
<g id="node3" class="node">
<title>DriverModule</title>
<polygon fill="#8dd3c7" stroke="black" points="951.08,-160.8 948.08,-164.8 927.08,-164.8 924.08,-160.8 854.92,-160.8 854.92,-124.8 951.08,-124.8 951.08,-160.8"/>
<text text-anchor="middle" x="903" y="-138.6" font-family="Times,serif" font-size="14.00">DriverModule</text>
</g>
<!-- DriverModule&#45;&gt;AppModule -->
<g id="edge3" class="edge">
<title>DriverModule&#45;&gt;AppModule</title>
<path fill="none" stroke="black" d="M903,-161.08C903,-182.12 903,-213.8 903,-213.8 903,-213.8 1326.26,-213.8 1326.26,-213.8"/>
<polygon fill="black" stroke="black" points="1326.26,-217.3 1336.26,-213.8 1326.26,-210.3 1326.26,-217.3"/>
</g>
<!-- DriverService  -->
<g id="node22" class="node">
<title>DriverService </title>
<polygon fill="#fb8072" stroke="black" points="1258.01,-84.8 1159.99,-84.8 1159.99,-48.8 1258.01,-48.8 1258.01,-84.8"/>
<text text-anchor="middle" x="1209" y="-62.6" font-family="Times,serif" font-size="14.00">DriverService </text>
</g>
<!-- DriverModule&#45;&gt;DriverService  -->
<g id="edge21" class="edge">
<title>DriverModule&#45;&gt;DriverService </title>
<path fill="none" stroke="black" stroke-dasharray="5,2" d="M904.42,-124.55C904.42,-110.62 904.42,-93.8 904.42,-93.8 904.42,-93.8 1166.46,-93.8 1166.46,-93.8 1166.46,-93.8 1166.46,-92.92 1166.46,-92.92"/>
<polygon fill="black" stroke="black" points="1169.96,-94.96 1166.46,-84.96 1162.96,-94.96 1169.96,-94.96"/>
</g>
<!-- ExpenseModule -->
<g id="node4" class="node">
<title>ExpenseModule</title>
<polygon fill="#8dd3c7" stroke="black" points="1431.48,-160.8 1428.48,-164.8 1407.48,-164.8 1404.48,-160.8 1324.52,-160.8 1324.52,-124.8 1431.48,-124.8 1431.48,-160.8"/>
<text text-anchor="middle" x="1378" y="-138.6" font-family="Times,serif" font-size="14.00">ExpenseModule</text>
</g>
<!-- ExpenseModule&#45;&gt;AppModule -->
<g id="edge4" class="edge">
<title>ExpenseModule&#45;&gt;AppModule</title>
<path fill="none" stroke="black" d="M1378,-161.02C1378,-161.02 1378,-182.53 1378,-182.53"/>
<polygon fill="black" stroke="black" points="1374.5,-182.53 1378,-192.53 1381.5,-182.53 1374.5,-182.53"/>
</g>
<!-- ExpenseService  -->
<g id="node25" class="node">
<title>ExpenseService </title>
<polygon fill="#fb8072" stroke="black" points="2832.4,-228.8 2723.6,-228.8 2723.6,-192.8 2832.4,-192.8 2832.4,-228.8"/>
<text text-anchor="middle" x="2778" y="-206.6" font-family="Times,serif" font-size="14.00">ExpenseService </text>
</g>
<!-- ExpenseModule&#45;&gt;ExpenseService  -->
<g id="edge24" class="edge">
<title>ExpenseModule&#45;&gt;ExpenseService </title>
<path fill="none" stroke="black" stroke-dasharray="5,2" d="M1423.71,-160.86C1423.71,-172.24 1423.71,-184.8 1423.71,-184.8 1423.71,-184.8 2778,-184.8 2778,-184.8 2778,-184.8 2778,-185.59 2778,-185.59"/>
<polygon fill="black" stroke="black" points="2774.5,-182.74 2778,-192.74 2781.5,-182.74 2774.5,-182.74"/>
</g>
<!-- IncomeStatementModule -->
<g id="node5" class="node">
<title>IncomeStatementModule</title>
<polygon fill="#8dd3c7" stroke="black" points="1606.52,-160.8 1603.52,-164.8 1582.52,-164.8 1579.52,-160.8 1449.48,-160.8 1449.48,-124.8 1606.52,-124.8 1606.52,-160.8"/>
<text text-anchor="middle" x="1528" y="-138.6" font-family="Times,serif" font-size="14.00">IncomeStatementModule</text>
</g>
<!-- IncomeStatementModule&#45;&gt;AppModule -->
<g id="edge5" class="edge">
<title>IncomeStatementModule&#45;&gt;AppModule</title>
<path fill="none" stroke="black" d="M1567.38,-160.83C1567.38,-177.2 1567.38,-198.8 1567.38,-198.8 1567.38,-198.8 1430.03,-198.8 1430.03,-198.8"/>
<polygon fill="black" stroke="black" points="1430.03,-195.3 1420.03,-198.8 1430.03,-202.3 1430.03,-195.3"/>
</g>
<!-- IncomeStatementService  -->
<g id="node27" class="node">
<title>IncomeStatementService </title>
<polygon fill="#fb8072" stroke="black" points="3271.95,-228.8 3112.05,-228.8 3112.05,-192.8 3271.95,-192.8 3271.95,-228.8"/>
<text text-anchor="middle" x="3192" y="-206.6" font-family="Times,serif" font-size="14.00">IncomeStatementService </text>
</g>
<!-- IncomeStatementModule&#45;&gt;IncomeStatementService  -->
<g id="edge26" class="edge">
<title>IncomeStatementModule&#45;&gt;IncomeStatementService </title>
<path fill="none" stroke="black" stroke-dasharray="5,2" d="M1488.62,-160.91C1488.62,-170.7 1488.62,-180.8 1488.62,-180.8 1488.62,-180.8 3192,-180.8 3192,-180.8 3192,-180.8 3192,-182.66 3192,-182.66"/>
<polygon fill="black" stroke="black" points="3188.5,-182.66 3192,-192.66 3195.5,-182.66 3188.5,-182.66"/>
</g>
<!-- ManagerModule -->
<g id="node6" class="node">
<title>ManagerModule</title>
<polygon fill="#8dd3c7" stroke="black" points="1733.8,-160.8 1730.8,-164.8 1709.8,-164.8 1706.8,-160.8 1624.2,-160.8 1624.2,-124.8 1733.8,-124.8 1733.8,-160.8"/>
<text text-anchor="middle" x="1679" y="-138.6" font-family="Times,serif" font-size="14.00">ManagerModule</text>
</g>
<!-- ManagerModule&#45;&gt;AppModule -->
<g id="edge6" class="edge">
<title>ManagerModule&#45;&gt;AppModule</title>
<path fill="none" stroke="black" d="M1715.43,-161.1C1715.43,-179.07 1715.43,-203.8 1715.43,-203.8 1715.43,-203.8 1429.71,-203.8 1429.71,-203.8"/>
<polygon fill="black" stroke="black" points="1429.71,-200.3 1419.71,-203.8 1429.71,-207.3 1429.71,-200.3"/>
</g>
<!-- JwtSecret2Service  -->
<g id="node29" class="node">
<title>JwtSecret2Service </title>
<polygon fill="#fb8072" stroke="black" points="3954.4,-228.8 3831.6,-228.8 3831.6,-192.8 3954.4,-192.8 3954.4,-228.8"/>
<text text-anchor="middle" x="3893" y="-206.6" font-family="Times,serif" font-size="14.00">JwtSecret2Service </text>
</g>
<!-- ManagerModule&#45;&gt;JwtSecret2Service  -->
<g id="edge28" class="edge">
<title>ManagerModule&#45;&gt;JwtSecret2Service </title>
<path fill="none" stroke="black" stroke-dasharray="5,2" d="M1660.78,-161C1660.78,-166.83 1660.78,-171.8 1660.78,-171.8 1660.78,-171.8 3893,-171.8 3893,-171.8 3893,-171.8 3893,-182.67 3893,-182.67"/>
<polygon fill="black" stroke="black" points="3889.5,-182.67 3893,-192.67 3896.5,-182.67 3889.5,-182.67"/>
</g>
<!-- ManagerService  -->
<g id="node30" class="node">
<title>ManagerService </title>
<polygon fill="#fb8072" stroke="black" points="3813.73,-228.8 3702.27,-228.8 3702.27,-192.8 3813.73,-192.8 3813.73,-228.8"/>
<text text-anchor="middle" x="3758" y="-206.6" font-family="Times,serif" font-size="14.00">ManagerService </text>
</g>
<!-- ManagerModule&#45;&gt;ManagerService  -->
<g id="edge29" class="edge">
<title>ManagerModule&#45;&gt;ManagerService </title>
<path fill="none" stroke="black" stroke-dasharray="5,2" d="M1642.57,-160.83C1642.57,-167.65 1642.57,-173.8 1642.57,-173.8 1642.57,-173.8 3758,-173.8 3758,-173.8 3758,-173.8 3758,-182.73 3758,-182.73"/>
<polygon fill="black" stroke="black" points="3754.5,-182.73 3758,-192.73 3761.5,-182.73 3754.5,-182.73"/>
</g>
<!-- OrderModule -->
<g id="node7" class="node">
<title>OrderModule</title>
<polygon fill="#8dd3c7" stroke="black" points="1061.19,-160.8 1058.19,-164.8 1037.19,-164.8 1034.19,-160.8 968.81,-160.8 968.81,-124.8 1061.19,-124.8 1061.19,-160.8"/>
<text text-anchor="middle" x="1015" y="-138.6" font-family="Times,serif" font-size="14.00">OrderModule</text>
</g>
<!-- OrderModule&#45;&gt;AppModule -->
<g id="edge7" class="edge">
<title>OrderModule&#45;&gt;AppModule</title>
<path fill="none" stroke="black" d="M1015,-160.83C1015,-180.38 1015,-208.8 1015,-208.8 1015,-208.8 1326,-208.8 1326,-208.8"/>
<polygon fill="black" stroke="black" points="1326,-212.3 1336,-208.8 1326,-205.3 1326,-212.3"/>
</g>
<!-- ProductModule -->
<g id="node8" class="node">
<title>ProductModule</title>
<polygon fill="#8dd3c7" stroke="black" points="1854.6,-160.8 1851.6,-164.8 1830.6,-164.8 1827.6,-160.8 1751.4,-160.8 1751.4,-124.8 1854.6,-124.8 1854.6,-160.8"/>
<text text-anchor="middle" x="1803" y="-138.6" font-family="Times,serif" font-size="14.00">ProductModule</text>
</g>
<!-- ProductModule&#45;&gt;AppModule -->
<g id="edge8" class="edge">
<title>ProductModule&#45;&gt;AppModule</title>
<path fill="none" stroke="black" d="M1828.77,-160.83C1828.77,-180.38 1828.77,-208.8 1828.77,-208.8 1828.77,-208.8 1430,-208.8 1430,-208.8"/>
<polygon fill="black" stroke="black" points="1430,-205.3 1420,-208.8 1430,-212.3 1430,-205.3"/>
</g>
<!-- ProductService  -->
<g id="node34" class="node">
<title>ProductService </title>
<polygon fill="#fb8072" stroke="black" points="4263.53,-228.8 4158.47,-228.8 4158.47,-192.8 4263.53,-192.8 4263.53,-228.8"/>
<text text-anchor="middle" x="4211" y="-206.6" font-family="Times,serif" font-size="14.00">ProductService </text>
</g>
<!-- ProductModule&#45;&gt;ProductService  -->
<g id="edge33" class="edge">
<title>ProductModule&#45;&gt;ProductService </title>
<path fill="none" stroke="black" stroke-dasharray="5,2" d="M1777.23,-160.97C1777.23,-164.85 1777.23,-167.8 1777.23,-167.8 1777.23,-167.8 4211,-167.8 4211,-167.8 4211,-167.8 4211,-182.31 4211,-182.31"/>
<polygon fill="black" stroke="black" points="4207.5,-182.31 4211,-192.31 4214.5,-182.31 4207.5,-182.31"/>
</g>
<!-- PurchaseModule -->
<g id="node9" class="node">
<title>PurchaseModule</title>
<polygon fill="#8dd3c7" stroke="black" points="1983.08,-160.8 1980.08,-164.8 1959.08,-164.8 1956.08,-160.8 1872.92,-160.8 1872.92,-124.8 1983.08,-124.8 1983.08,-160.8"/>
<text text-anchor="middle" x="1928" y="-138.6" font-family="Times,serif" font-size="14.00">PurchaseModule</text>
</g>
<!-- PurchaseModule&#45;&gt;AppModule -->
<g id="edge9" class="edge">
<title>PurchaseModule&#45;&gt;AppModule</title>
<path fill="none" stroke="black" d="M1955.52,-161.08C1955.52,-182.12 1955.52,-213.8 1955.52,-213.8 1955.52,-213.8 1430,-213.8 1430,-213.8"/>
<polygon fill="black" stroke="black" points="1430,-210.3 1420,-213.8 1430,-217.3 1430,-210.3"/>
</g>
<!-- PurchaseService  -->
<g id="node36" class="node">
<title>PurchaseService </title>
<polygon fill="#fb8072" stroke="black" points="4590.01,-228.8 4477.99,-228.8 4477.99,-192.8 4590.01,-192.8 4590.01,-228.8"/>
<text text-anchor="middle" x="4534" y="-206.6" font-family="Times,serif" font-size="14.00">PurchaseService </text>
</g>
<!-- PurchaseModule&#45;&gt;PurchaseService  -->
<g id="edge35" class="edge">
<title>PurchaseModule&#45;&gt;PurchaseService </title>
<path fill="none" stroke="black" stroke-dasharray="5,2" d="M1900.48,-160.88C1900.48,-162.65 1900.48,-163.8 1900.48,-163.8 1900.48,-163.8 4534,-163.8 4534,-163.8 4534,-163.8 4534,-182.76 4534,-182.76"/>
<polygon fill="black" stroke="black" points="4530.5,-182.76 4534,-192.76 4537.5,-182.76 4530.5,-182.76"/>
</g>
<!-- SaleModule -->
<g id="node10" class="node">
<title>SaleModule</title>
<polygon fill="#8dd3c7" stroke="black" points="2084.65,-160.8 2081.65,-164.8 2060.65,-164.8 2057.65,-160.8 2001.35,-160.8 2001.35,-124.8 2084.65,-124.8 2084.65,-160.8"/>
<text text-anchor="middle" x="2043" y="-138.6" font-family="Times,serif" font-size="14.00">SaleModule</text>
</g>
<!-- SaleModule&#45;&gt;AppModule -->
<g id="edge10" class="edge">
<title>SaleModule&#45;&gt;AppModule</title>
<path fill="none" stroke="black" d="M2022.09,-160.81C2022.09,-183.29 2022.09,-218.8 2022.09,-218.8 2022.09,-218.8 1429.76,-218.8 1429.76,-218.8"/>
<polygon fill="black" stroke="black" points="1429.76,-215.3 1419.76,-218.8 1429.76,-222.3 1429.76,-215.3"/>
</g>
<!-- SaleService  -->
<g id="node38" class="node">
<title>SaleService </title>
<polygon fill="#fb8072" stroke="black" points="4853.58,-228.8 4768.42,-228.8 4768.42,-192.8 4853.58,-192.8 4853.58,-228.8"/>
<text text-anchor="middle" x="4811" y="-206.6" font-family="Times,serif" font-size="14.00">SaleService </text>
</g>
<!-- SaleModule&#45;&gt;SaleService  -->
<g id="edge37" class="edge">
<title>SaleModule&#45;&gt;SaleService </title>
<path fill="none" stroke="black" stroke-dasharray="5,2" d="M2043,-161.29C2043,-192.39 2043,-251.8 2043,-251.8 2043,-251.8 4811,-251.8 4811,-251.8 4811,-251.8 4811,-238.9 4811,-238.9"/>
<polygon fill="black" stroke="black" points="4814.5,-238.9 4811,-228.9 4807.5,-238.9 4814.5,-238.9"/>
</g>
<!-- StoreModule -->
<g id="node11" class="node">
<title>StoreModule</title>
<polygon fill="#8dd3c7" stroke="black" points="2191.6,-160.8 2188.6,-164.8 2167.6,-164.8 2164.6,-160.8 2102.4,-160.8 2102.4,-124.8 2191.6,-124.8 2191.6,-160.8"/>
<text text-anchor="middle" x="2147" y="-138.6" font-family="Times,serif" font-size="14.00">StoreModule</text>
</g>
<!-- StoreModule&#45;&gt;AppModule -->
<g id="edge11" class="edge">
<title>StoreModule&#45;&gt;AppModule</title>
<path fill="none" stroke="black" d="M2147,-161.18C2147,-185.08 2147,-223.8 2147,-223.8 2147,-223.8 1429.89,-223.8 1429.89,-223.8"/>
<polygon fill="black" stroke="black" points="1429.89,-220.3 1419.89,-223.8 1429.89,-227.3 1429.89,-220.3"/>
</g>
<!-- StoreService  -->
<g id="node40" class="node">
<title>StoreService </title>
<polygon fill="#fb8072" stroke="black" points="5129.53,-228.8 5038.47,-228.8 5038.47,-192.8 5129.53,-192.8 5129.53,-228.8"/>
<text text-anchor="middle" x="5084" y="-206.6" font-family="Times,serif" font-size="14.00">StoreService </text>
</g>
<!-- StoreModule&#45;&gt;StoreService  -->
<g id="edge39" class="edge">
<title>StoreModule&#45;&gt;StoreService </title>
<path fill="none" stroke="black" stroke-dasharray="5,2" d="M2191.67,-136.8C2560.14,-136.8 5084,-136.8 5084,-136.8 5084,-136.8 5084,-182.51 5084,-182.51"/>
<polygon fill="black" stroke="black" points="5080.5,-182.51 5084,-192.51 5087.5,-182.51 5080.5,-182.51"/>
</g>
<!-- UploadModule -->
<g id="node12" class="node">
<title>UploadModule</title>
<polygon fill="#8dd3c7" stroke="black" points="1179.26,-160.8 1176.26,-164.8 1155.26,-164.8 1152.26,-160.8 1078.74,-160.8 1078.74,-124.8 1179.26,-124.8 1179.26,-160.8"/>
<text text-anchor="middle" x="1129" y="-138.6" font-family="Times,serif" font-size="14.00">UploadModule</text>
</g>
<!-- UploadModule&#45;&gt;AppModule -->
<g id="edge12" class="edge">
<title>UploadModule&#45;&gt;AppModule</title>
<path fill="none" stroke="black" d="M1129,-161.1C1129,-179.07 1129,-203.8 1129,-203.8 1129,-203.8 1326.32,-203.8 1326.32,-203.8"/>
<polygon fill="black" stroke="black" points="1326.32,-207.3 1336.32,-203.8 1326.32,-200.3 1326.32,-207.3"/>
</g>
<!-- AppService -->
<g id="node14" class="node">
<title>AppService</title>
<ellipse fill="#fdb462" stroke="black" cx="642" cy="-142.8" rx="56.74" ry="18"/>
<text text-anchor="middle" x="642" y="-138.6" font-family="Times,serif" font-size="14.00">AppService</text>
</g>
<!-- AppService&#45;&gt;AppModule -->
<g id="edge13" class="edge">
<title>AppService&#45;&gt;AppModule</title>
<path fill="none" stroke="black" d="M642,-161.18C642,-185.08 642,-223.8 642,-223.8 642,-223.8 1326.32,-223.8 1326.32,-223.8"/>
<polygon fill="black" stroke="black" points="1326.32,-227.3 1336.32,-223.8 1326.32,-220.3 1326.32,-227.3"/>
</g>
<!-- CustomerLocalStrategy -->
<g id="node17" class="node">
<title>CustomerLocalStrategy</title>
<ellipse fill="#fdb462" stroke="black" cx="127" cy="-66.8" rx="102.51" ry="18"/>
<text text-anchor="middle" x="127" y="-62.6" font-family="Times,serif" font-size="14.00">CustomerLocalStrategy</text>
</g>
<!-- CustomerLocalStrategy&#45;&gt;CustomerModule -->
<g id="edge16" class="edge">
<title>CustomerLocalStrategy&#45;&gt;CustomerModule</title>
<path fill="none" stroke="black" d="M127,-85.08C127,-100.75 127,-120.8 127,-120.8 127,-120.8 738.83,-120.8 738.83,-120.8 738.83,-120.8 738.83,-121.18 738.83,-121.18"/>
<polygon fill="black" stroke="black" points="735.33,-114.63 738.83,-124.63 742.33,-114.63 735.33,-114.63"/>
</g>
<!-- CustomerService -->
<g id="node18" class="node">
<title>CustomerService</title>
<ellipse fill="#fdb462" stroke="black" cx="460" cy="-66.8" rx="77.58" ry="18"/>
<text text-anchor="middle" x="460" y="-62.6" font-family="Times,serif" font-size="14.00">CustomerService</text>
</g>
<!-- CustomerService&#45;&gt;CustomerModule -->
<g id="edge17" class="edge">
<title>CustomerService&#45;&gt;CustomerModule</title>
<path fill="none" stroke="black" d="M460,-84.84C460,-97.36 460,-111.8 460,-111.8 460,-111.8 770.48,-111.8 770.48,-111.8 770.48,-111.8 770.48,-114.77 770.48,-114.77"/>
<polygon fill="black" stroke="black" points="766.98,-114.77 770.48,-124.77 773.98,-114.77 766.98,-114.77"/>
</g>
<!-- MailService -->
<g id="node19" class="node">
<title>MailService</title>
<ellipse fill="#fdb462" stroke="black" cx="306" cy="-66.8" rx="58.46" ry="18"/>
<text text-anchor="middle" x="306" y="-62.6" font-family="Times,serif" font-size="14.00">MailService</text>
</g>
<!-- MailService&#45;&gt;CustomerModule -->
<g id="edge18" class="edge">
<title>MailService&#45;&gt;CustomerModule</title>
<path fill="none" stroke="black" d="M306,-84.85C306,-99.17 306,-116.8 306,-116.8 306,-116.8 754.66,-116.8 754.66,-116.8 754.66,-116.8 754.66,-117.59 754.66,-117.59"/>
<polygon fill="black" stroke="black" points="751.16,-114.74 754.66,-124.74 758.16,-114.74 751.16,-114.74"/>
</g>
<!-- DeliveryService -->
<g id="node21" class="node">
<title>DeliveryService</title>
<ellipse fill="#fdb462" stroke="black" cx="2306" cy="-210.8" rx="73.55" ry="18"/>
<text text-anchor="middle" x="2306" y="-206.6" font-family="Times,serif" font-size="14.00">DeliveryService</text>
</g>
<!-- DeliveryService&#45;&gt;DeliveryModule -->
<g id="edge20" class="edge">
<title>DeliveryService&#45;&gt;DeliveryModule</title>
<path fill="none" stroke="black" d="M2306,-192.65C2306,-191.5 2306,-190.8 2306,-190.8 2306,-190.8 1252,-190.8 1252,-190.8 1252,-190.8 1252,-170.95 1252,-170.95"/>
<polygon fill="black" stroke="black" points="1255.5,-170.95 1252,-160.95 1248.5,-170.95 1255.5,-170.95"/>
</g>
<!-- DriverService -->
<g id="node23" class="node">
<title>DriverService</title>
<ellipse fill="#fdb462" stroke="black" cx="1071" cy="-66.8" rx="65.38" ry="18"/>
<text text-anchor="middle" x="1071" y="-62.6" font-family="Times,serif" font-size="14.00">DriverService</text>
</g>
<!-- DriverService&#45;&gt;DriverModule -->
<g id="edge22" class="edge">
<title>DriverService&#45;&gt;DriverModule</title>
<path fill="none" stroke="black" d="M1024.24,-79.38C1024.24,-84.75 1024.24,-89.8 1024.24,-89.8 1024.24,-89.8 927.73,-89.8 927.73,-89.8 927.73,-89.8 927.73,-114.56 927.73,-114.56"/>
<polygon fill="black" stroke="black" points="924.23,-114.56 927.73,-124.56 931.23,-114.56 924.23,-114.56"/>
</g>
<!-- LocalStrategy -->
<g id="node24" class="node">
<title>LocalStrategy</title>
<ellipse fill="#fdb462" stroke="black" cx="923" cy="-66.8" rx="65.41" ry="18"/>
<text text-anchor="middle" x="923" y="-62.6" font-family="Times,serif" font-size="14.00">LocalStrategy</text>
</g>
<!-- LocalStrategy&#45;&gt;DriverModule -->
<g id="edge23" class="edge">
<title>LocalStrategy&#45;&gt;DriverModule</title>
<path fill="none" stroke="black" d="M881.11,-80.74C881.11,-80.74 881.11,-114.64 881.11,-114.64"/>
<polygon fill="black" stroke="black" points="877.61,-114.64 881.11,-124.64 884.61,-114.64 877.61,-114.64"/>
</g>
<!-- ExpenseService -->
<g id="node26" class="node">
<title>ExpenseService</title>
<ellipse fill="#fdb462" stroke="black" cx="2627" cy="-210.8" rx="72.91" ry="18"/>
<text text-anchor="middle" x="2627" y="-206.6" font-family="Times,serif" font-size="14.00">ExpenseService</text>
</g>
<!-- ExpenseService&#45;&gt;ExpenseModule -->
<g id="edge25" class="edge">
<title>ExpenseService&#45;&gt;ExpenseModule</title>
<path fill="none" stroke="black" d="M2627,-192.61C2627,-189.26 2627,-186.8 2627,-186.8 2627,-186.8 1427.6,-186.8 1427.6,-186.8 1427.6,-186.8 1427.6,-170.95 1427.6,-170.95"/>
<polygon fill="black" stroke="black" points="1431.1,-170.95 1427.6,-160.95 1424.1,-170.95 1431.1,-170.95"/>
</g>
<!-- IncomeStatementService -->
<g id="node28" class="node">
<title>IncomeStatementService</title>
<ellipse fill="#fdb462" stroke="black" cx="2980" cy="-210.8" rx="107.64" ry="18"/>
<text text-anchor="middle" x="2980" y="-206.6" font-family="Times,serif" font-size="14.00">IncomeStatementService</text>
</g>
<!-- IncomeStatementService&#45;&gt;IncomeStatementModule -->
<g id="edge27" class="edge">
<title>IncomeStatementService&#45;&gt;IncomeStatementModule</title>
<path fill="none" stroke="black" d="M2980,-192.59C2980,-187.25 2980,-182.8 2980,-182.8 2980,-182.8 1528,-182.8 1528,-182.8 1528,-182.8 1528,-170.93 1528,-170.93"/>
<polygon fill="black" stroke="black" points="1531.5,-170.93 1528,-160.93 1524.5,-170.93 1531.5,-170.93"/>
</g>
<!-- ManagerLocalStrategy -->
<g id="node31" class="node">
<title>ManagerLocalStrategy</title>
<ellipse fill="#fdb462" stroke="black" cx="3578" cy="-210.8" rx="99.54" ry="18"/>
<text text-anchor="middle" x="3578" y="-206.6" font-family="Times,serif" font-size="14.00">ManagerLocalStrategy</text>
</g>
<!-- ManagerLocalStrategy&#45;&gt;ManagerModule -->
<g id="edge30" class="edge">
<title>ManagerLocalStrategy&#45;&gt;ManagerModule</title>
<path fill="none" stroke="black" d="M3578,-192.48C3578,-184.01 3578,-175.8 3578,-175.8 3578,-175.8 1697.22,-175.8 1697.22,-175.8 1697.22,-175.8 1697.22,-170.84 1697.22,-170.84"/>
<polygon fill="black" stroke="black" points="1700.72,-170.84 1697.22,-160.84 1693.72,-170.84 1700.72,-170.84"/>
</g>
<!-- ManagerService -->
<g id="node32" class="node">
<title>ManagerService</title>
<ellipse fill="#fdb462" stroke="black" cx="3386" cy="-210.8" rx="74.12" ry="18"/>
<text text-anchor="middle" x="3386" y="-206.6" font-family="Times,serif" font-size="14.00">ManagerService</text>
</g>
<!-- ManagerService&#45;&gt;ManagerModule -->
<g id="edge31" class="edge">
<title>ManagerService&#45;&gt;ManagerModule</title>
<path fill="none" stroke="black" d="M3386,-192.56C3386,-185.37 3386,-178.8 3386,-178.8 3386,-178.8 1679,-178.8 1679,-178.8 1679,-178.8 1679,-171.22 1679,-171.22"/>
<polygon fill="black" stroke="black" points="1682.5,-171.22 1679,-161.22 1675.5,-171.22 1682.5,-171.22"/>
</g>
<!-- OrderService -->
<g id="node33" class="node">
<title>OrderService</title>
<ellipse fill="#fdb462" stroke="black" cx="1361" cy="-66.8" rx="62.52" ry="18"/>
<text text-anchor="middle" x="1361" y="-62.6" font-family="Times,serif" font-size="14.00">OrderService</text>
</g>
<!-- OrderService&#45;&gt;OrderModule -->
<g id="edge32" class="edge">
<title>OrderService&#45;&gt;OrderModule</title>
<path fill="none" stroke="black" d="M1302.38,-73.28C1302.38,-82.63 1302.38,-98.8 1302.38,-98.8 1302.38,-98.8 1042.67,-98.8 1042.67,-98.8 1042.67,-98.8 1042.67,-114.65 1042.67,-114.65"/>
<polygon fill="black" stroke="black" points="1039.17,-114.65 1042.67,-124.65 1046.17,-114.65 1039.17,-114.65"/>
</g>
<!-- ProductService -->
<g id="node35" class="node">
<title>ProductService</title>
<ellipse fill="#fdb462" stroke="black" cx="4064" cy="-210.8" rx="70.06" ry="18"/>
<text text-anchor="middle" x="4064" y="-206.6" font-family="Times,serif" font-size="14.00">ProductService</text>
</g>
<!-- ProductService&#45;&gt;ProductModule -->
<g id="edge34" class="edge">
<title>ProductService&#45;&gt;ProductModule</title>
<path fill="none" stroke="black" d="M4064,-192.7C4064,-181.71 4064,-169.8 4064,-169.8 4064,-169.8 1803,-169.8 1803,-169.8 1803,-169.8 1803,-168.92 1803,-168.92"/>
<polygon fill="black" stroke="black" points="1806.5,-170.96 1803,-160.96 1799.5,-170.96 1806.5,-170.96"/>
</g>
<!-- PurchaseService -->
<g id="node37" class="node">
<title>PurchaseService</title>
<ellipse fill="#fdb462" stroke="black" cx="4379" cy="-210.8" rx="74.7" ry="18"/>
<text text-anchor="middle" x="4379" y="-206.6" font-family="Times,serif" font-size="14.00">PurchaseService</text>
</g>
<!-- PurchaseService&#45;&gt;PurchaseModule -->
<g id="edge36" class="edge">
<title>PurchaseService&#45;&gt;PurchaseModule</title>
<path fill="none" stroke="black" d="M4379,-192.76C4379,-180.24 4379,-165.8 4379,-165.8 4379,-165.8 1928,-165.8 1928,-165.8 1928,-165.8 1928,-165.31 1928,-165.31"/>
<polygon fill="black" stroke="black" points="1931.5,-170.92 1928,-160.92 1924.5,-170.92 1931.5,-170.92"/>
</g>
<!-- SaleService -->
<g id="node39" class="node">
<title>SaleService</title>
<ellipse fill="#fdb462" stroke="black" cx="4687" cy="-210.8" rx="56.73" ry="18"/>
<text text-anchor="middle" x="4687" y="-206.6" font-family="Times,serif" font-size="14.00">SaleService</text>
</g>
<!-- SaleService&#45;&gt;SaleModule -->
<g id="edge38" class="edge">
<title>SaleService&#45;&gt;SaleModule</title>
<path fill="none" stroke="black" d="M4687,-228.94C4687,-235.26 4687,-240.8 4687,-240.8 4687,-240.8 2063.91,-240.8 2063.91,-240.8 2063.91,-240.8 2063.91,-171.23 2063.91,-171.23"/>
<polygon fill="black" stroke="black" points="2067.41,-171.23 2063.91,-161.23 2060.41,-171.23 2067.41,-171.23"/>
</g>
<!-- StoreService -->
<g id="node41" class="node">
<title>StoreService</title>
<ellipse fill="#fdb462" stroke="black" cx="4954" cy="-210.8" rx="60.25" ry="18"/>
<text text-anchor="middle" x="4954" y="-206.6" font-family="Times,serif" font-size="14.00">StoreService</text>
</g>
<!-- StoreService&#45;&gt;StoreModule -->
<g id="edge40" class="edge">
<title>StoreService&#45;&gt;StoreModule</title>
<path fill="none" stroke="black" d="M4954,-192.53C4954,-174.24 4954,-148.8 4954,-148.8 4954,-148.8 2201.66,-148.8 2201.66,-148.8"/>
<polygon fill="black" stroke="black" points="2201.66,-145.3 2191.66,-148.8 2201.66,-152.3 2201.66,-145.3"/>
</g>
<!-- UploadService -->
<g id="node42" class="node">
<title>UploadService</title>
<ellipse fill="#fdb462" stroke="black" cx="1532" cy="-66.8" rx="68.34" ry="18"/>
<text text-anchor="middle" x="1532" y="-62.6" font-family="Times,serif" font-size="14.00">UploadService</text>
</g>
<!-- UploadService&#45;&gt;UploadModule -->
<g id="edge41" class="edge">
<title>UploadService&#45;&gt;UploadModule</title>
<path fill="none" stroke="black" d="M1532,-84.8C1532,-93.8 1532,-102.8 1532,-102.8 1532,-102.8 1172.92,-102.8 1172.92,-102.8 1172.92,-102.8 1172.92,-114.67 1172.92,-114.67"/>
<polygon fill="black" stroke="black" points="1169.42,-114.67 1172.92,-124.67 1176.42,-114.67 1169.42,-114.67"/>
</g>
</g>
</svg>
