<?xml version="1.0" encoding="UTF-8" standalone="no"?>
<!DOCTYPE svg PUBLIC "-//W3C//DTD SVG 1.1//EN"
 "http://www.w3.org/Graphics/SVG/1.1/DTD/svg11.dtd">
<!-- Generated by graphviz version 2.47.3 (20210619.1520)
 -->
<!-- Title: dependencies Pages: 1 -->
<svg width="422pt" height="247pt"
 viewBox="0.00 0.00 422.00 246.80" xmlns="http://www.w3.org/2000/svg" xmlns:xlink="http://www.w3.org/1999/xlink">
<g id="graph0" class="graph" transform="scale(1 1) rotate(0) translate(4 242.8)">
<title>dependencies</title>
<polygon fill="white" stroke="transparent" points="-4,4 -4,-242.8 418,-242.8 418,4 -4,4"/>
<text text-anchor="middle" x="207" y="-8.2" font-family="sans-serif" font-size="14.00">dependencies</text>
<g id="clust1" class="cluster">
<title>cluster_ManagerModule</title>
<polygon fill="none" stroke="black" stroke-dasharray="1,5" points="8,-32.8 8,-230.8 406,-230.8 406,-32.8 8,-32.8"/>
</g>
<g id="clust6" class="cluster">
<title>cluster_ManagerModule_providers</title>
<polygon fill="none" stroke="black" points="16,-40.8 16,-92.8 398,-92.8 398,-40.8 16,-40.8"/>
</g>
<g id="clust4" class="cluster">
<title>cluster_ManagerModule_exports</title>
<polygon fill="none" stroke="black" points="49,-170.8 49,-222.8 317,-222.8 317,-170.8 49,-170.8"/>
</g>
<!-- JwtSecret2Service  -->
<g id="node1" class="node">
<title>JwtSecret2Service </title>
<polygon fill="#fb8072" stroke="black" points="309.4,-214.8 186.6,-214.8 186.6,-178.8 309.4,-178.8 309.4,-214.8"/>
<text text-anchor="middle" x="248" y="-192.6" font-family="Times,serif" font-size="14.00">JwtSecret2Service </text>
</g>
<!-- ManagerService  -->
<g id="node2" class="node">
<title>ManagerService </title>
<polygon fill="#fb8072" stroke="black" points="168.73,-214.8 57.27,-214.8 57.27,-178.8 168.73,-178.8 168.73,-214.8"/>
<text text-anchor="middle" x="113" y="-192.6" font-family="Times,serif" font-size="14.00">ManagerService </text>
</g>
<!-- ManagerModule -->
<g id="node3" class="node">
<title>ManagerModule</title>
<polygon fill="#8dd3c7" stroke="black" points="200.8,-149.8 197.8,-153.8 176.8,-153.8 173.8,-149.8 91.2,-149.8 91.2,-113.8 200.8,-113.8 200.8,-149.8"/>
<text text-anchor="middle" x="146" y="-127.6" font-family="Times,serif" font-size="14.00">ManagerModule</text>
</g>
<!-- ManagerModule&#45;&gt;JwtSecret2Service  -->
<g id="edge1" class="edge">
<title>ManagerModule&#45;&gt;JwtSecret2Service </title>
<path fill="none" stroke="black" stroke-dasharray="5,2" d="M193.6,-149.91C193.6,-149.91 193.6,-168.79 193.6,-168.79"/>
<polygon fill="black" stroke="black" points="190.1,-168.79 193.6,-178.79 197.1,-168.79 190.1,-168.79"/>
</g>
<!-- ManagerModule&#45;&gt;ManagerService  -->
<g id="edge2" class="edge">
<title>ManagerModule&#45;&gt;ManagerService </title>
<path fill="none" stroke="black" stroke-dasharray="5,2" d="M129.98,-149.91C129.98,-149.91 129.98,-168.79 129.98,-168.79"/>
<polygon fill="black" stroke="black" points="126.48,-168.79 129.98,-178.79 133.48,-168.79 126.48,-168.79"/>
</g>
<!-- ManagerLocalStrategy -->
<g id="node4" class="node">
<title>ManagerLocalStrategy</title>
<ellipse fill="#fdb462" stroke="black" cx="290" cy="-66.8" rx="99.54" ry="18"/>
<text text-anchor="middle" x="290" y="-62.6" font-family="Times,serif" font-size="14.00">ManagerLocalStrategy</text>
</g>
<!-- ManagerLocalStrategy&#45;&gt;ManagerModule -->
<g id="edge3" class="edge">
<title>ManagerLocalStrategy&#45;&gt;ManagerModule</title>
<path fill="none" stroke="black" d="M195.57,-72.8C195.57,-72.8 195.57,-103.56 195.57,-103.56"/>
<polygon fill="black" stroke="black" points="192.07,-103.56 195.57,-113.56 199.07,-103.56 192.07,-103.56"/>
</g>
<!-- ManagerService -->
<g id="node5" class="node">
<title>ManagerService</title>
<ellipse fill="#fdb462" stroke="black" cx="98" cy="-66.8" rx="74.12" ry="18"/>
<text text-anchor="middle" x="98" y="-62.6" font-family="Times,serif" font-size="14.00">ManagerService</text>
</g>
<!-- ManagerService&#45;&gt;ManagerModule -->
<g id="edge4" class="edge">
<title>ManagerService&#45;&gt;ManagerModule</title>
<path fill="none" stroke="black" d="M131.83,-82.87C131.83,-82.87 131.83,-103.62 131.83,-103.62"/>
<polygon fill="black" stroke="black" points="128.33,-103.62 131.83,-113.62 135.33,-103.62 128.33,-103.62"/>
</g>
</g>
</svg>
