<?xml version="1.0" encoding="UTF-8" standalone="no"?>
<!DOCTYPE svg PUBLIC "-//W3C//DTD SVG 1.1//EN"
 "http://www.w3.org/Graphics/SVG/1.1/DTD/svg11.dtd">
<!-- Generated by graphviz version 2.47.3 (20210619.1520)
 -->
<!-- Title: dependencies Pages: 1 -->
<svg width="272pt" height="247pt"
 viewBox="0.00 0.00 272.00 246.80" xmlns="http://www.w3.org/2000/svg" xmlns:xlink="http://www.w3.org/1999/xlink">
<g id="graph0" class="graph" transform="scale(1 1) rotate(0) translate(4 242.8)">
<title>dependencies</title>
<polygon fill="white" stroke="transparent" points="-4,4 -4,-242.8 268,-242.8 268,4 -4,4"/>
<text text-anchor="middle" x="132" y="-8.2" font-family="sans-serif" font-size="14.00">dependencies</text>
<g id="clust1" class="cluster">
<title>cluster_IncomeStatementModule</title>
<polygon fill="none" stroke="black" stroke-dasharray="1,5" points="8,-32.8 8,-230.8 256,-230.8 256,-32.8 8,-32.8"/>
</g>
<g id="clust4" class="cluster">
<title>cluster_IncomeStatementModule_exports</title>
<polygon fill="none" stroke="black" points="44,-170.8 44,-222.8 220,-222.8 220,-170.8 44,-170.8"/>
</g>
<g id="clust6" class="cluster">
<title>cluster_IncomeStatementModule_providers</title>
<polygon fill="none" stroke="black" points="16,-40.8 16,-92.8 248,-92.8 248,-40.8 16,-40.8"/>
</g>
<!-- IncomeStatementService  -->
<g id="node1" class="node">
<title>IncomeStatementService </title>
<polygon fill="#fb8072" stroke="black" points="211.95,-214.8 52.05,-214.8 52.05,-178.8 211.95,-178.8 211.95,-214.8"/>
<text text-anchor="middle" x="132" y="-192.6" font-family="Times,serif" font-size="14.00">IncomeStatementService </text>
</g>
<!-- IncomeStatementModule -->
<g id="node2" class="node">
<title>IncomeStatementModule</title>
<polygon fill="#8dd3c7" stroke="black" points="210.52,-149.8 207.52,-153.8 186.52,-153.8 183.52,-149.8 53.48,-149.8 53.48,-113.8 210.52,-113.8 210.52,-149.8"/>
<text text-anchor="middle" x="132" y="-127.6" font-family="Times,serif" font-size="14.00">IncomeStatementModule</text>
</g>
<!-- IncomeStatementModule&#45;&gt;IncomeStatementService  -->
<g id="edge1" class="edge">
<title>IncomeStatementModule&#45;&gt;IncomeStatementService </title>
<path fill="none" stroke="black" stroke-dasharray="5,2" d="M132,-149.91C132,-149.91 132,-168.79 132,-168.79"/>
<polygon fill="black" stroke="black" points="128.5,-168.79 132,-178.79 135.5,-168.79 128.5,-168.79"/>
</g>
<!-- IncomeStatementService -->
<g id="node3" class="node">
<title>IncomeStatementService</title>
<ellipse fill="#fdb462" stroke="black" cx="132" cy="-66.8" rx="107.64" ry="18"/>
<text text-anchor="middle" x="132" y="-62.6" font-family="Times,serif" font-size="14.00">IncomeStatementService</text>
</g>
<!-- IncomeStatementService&#45;&gt;IncomeStatementModule -->
<g id="edge2" class="edge">
<title>IncomeStatementService&#45;&gt;IncomeStatementModule</title>
<path fill="none" stroke="black" d="M132,-84.91C132,-84.91 132,-103.79 132,-103.79"/>
<polygon fill="black" stroke="black" points="128.5,-103.79 132,-113.79 135.5,-103.79 128.5,-103.79"/>
</g>
</g>
</svg>
