<?xml version="1.0" encoding="UTF-8" standalone="no"?>
<!DOCTYPE svg PUBLIC "-//W3C//DTD SVG 1.1//EN"
 "http://www.w3.org/Graphics/SVG/1.1/DTD/svg11.dtd">
<!-- Generated by graphviz version 2.47.3 (20210619.1520)
 -->
<!-- Title: dependencies Pages: 1 -->
<svg width="569pt" height="247pt"
 viewBox="0.00 0.00 569.00 246.80" xmlns="http://www.w3.org/2000/svg" xmlns:xlink="http://www.w3.org/1999/xlink">
<g id="graph0" class="graph" transform="scale(1 1) rotate(0) translate(4 242.8)">
<title>dependencies</title>
<polygon fill="white" stroke="transparent" points="-4,4 -4,-242.8 565,-242.8 565,4 -4,4"/>
<text text-anchor="middle" x="280.5" y="-8.2" font-family="sans-serif" font-size="14.00">dependencies</text>
<g id="clust1" class="cluster">
<title>cluster_CustomerModule</title>
<polygon fill="none" stroke="black" stroke-dasharray="1,5" points="8,-32.8 8,-230.8 553,-230.8 553,-32.8 8,-32.8"/>
</g>
<g id="clust6" class="cluster">
<title>cluster_CustomerModule_providers</title>
<polygon fill="none" stroke="black" points="16,-40.8 16,-92.8 545,-92.8 545,-40.8 16,-40.8"/>
</g>
<g id="clust4" class="cluster">
<title>cluster_CustomerModule_exports</title>
<polygon fill="none" stroke="black" points="99,-170.8 99,-222.8 371,-222.8 371,-170.8 99,-170.8"/>
</g>
<!-- CustomerService  -->
<g id="node1" class="node">
<title>CustomerService </title>
<polygon fill="#fb8072" stroke="black" points="362.92,-214.8 247.08,-214.8 247.08,-178.8 362.92,-178.8 362.92,-214.8"/>
<text text-anchor="middle" x="305" y="-192.6" font-family="Times,serif" font-size="14.00">CustomerService </text>
</g>
<!-- JwtSecret1Service  -->
<g id="node2" class="node">
<title>JwtSecret1Service </title>
<polygon fill="#fb8072" stroke="black" points="229.4,-214.8 106.6,-214.8 106.6,-178.8 229.4,-178.8 229.4,-214.8"/>
<text text-anchor="middle" x="168" y="-192.6" font-family="Times,serif" font-size="14.00">JwtSecret1Service </text>
</g>
<!-- CustomerModule -->
<g id="node3" class="node">
<title>CustomerModule</title>
<polygon fill="#8dd3c7" stroke="black" points="292.99,-149.8 289.99,-153.8 268.99,-153.8 265.99,-149.8 179.01,-149.8 179.01,-113.8 292.99,-113.8 292.99,-149.8"/>
<text text-anchor="middle" x="236" y="-127.6" font-family="Times,serif" font-size="14.00">CustomerModule</text>
</g>
<!-- CustomerModule&#45;&gt;CustomerService  -->
<g id="edge1" class="edge">
<title>CustomerModule&#45;&gt;CustomerService </title>
<path fill="none" stroke="black" stroke-dasharray="5,2" d="M270.02,-149.91C270.02,-149.91 270.02,-168.79 270.02,-168.79"/>
<polygon fill="black" stroke="black" points="266.52,-168.79 270.02,-178.79 273.52,-168.79 266.52,-168.79"/>
</g>
<!-- CustomerModule&#45;&gt;JwtSecret1Service  -->
<g id="edge2" class="edge">
<title>CustomerModule&#45;&gt;JwtSecret1Service </title>
<path fill="none" stroke="black" stroke-dasharray="5,2" d="M204.23,-149.91C204.23,-149.91 204.23,-168.79 204.23,-168.79"/>
<polygon fill="black" stroke="black" points="200.73,-168.79 204.23,-178.79 207.73,-168.79 200.73,-168.79"/>
</g>
<!-- CustomerLocalStrategy -->
<g id="node4" class="node">
<title>CustomerLocalStrategy</title>
<ellipse fill="#fdb462" stroke="black" cx="434" cy="-66.8" rx="102.51" ry="18"/>
<text text-anchor="middle" x="434" y="-62.6" font-family="Times,serif" font-size="14.00">CustomerLocalStrategy</text>
</g>
<!-- CustomerLocalStrategy&#45;&gt;CustomerModule -->
<g id="edge3" class="edge">
<title>CustomerLocalStrategy&#45;&gt;CustomerModule</title>
<path fill="none" stroke="black" d="M347.1,-76.67C347.1,-94.86 347.1,-131.8 347.1,-131.8 347.1,-131.8 303.18,-131.8 303.18,-131.8"/>
<polygon fill="black" stroke="black" points="303.18,-128.3 293.18,-131.8 303.18,-135.3 303.18,-128.3"/>
</g>
<!-- CustomerService -->
<g id="node5" class="node">
<title>CustomerService</title>
<ellipse fill="#fdb462" stroke="black" cx="236" cy="-66.8" rx="77.58" ry="18"/>
<text text-anchor="middle" x="236" y="-62.6" font-family="Times,serif" font-size="14.00">CustomerService</text>
</g>
<!-- CustomerService&#45;&gt;CustomerModule -->
<g id="edge4" class="edge">
<title>CustomerService&#45;&gt;CustomerModule</title>
<path fill="none" stroke="black" d="M236,-84.91C236,-84.91 236,-103.79 236,-103.79"/>
<polygon fill="black" stroke="black" points="232.5,-103.79 236,-113.79 239.5,-103.79 232.5,-103.79"/>
</g>
<!-- MailService -->
<g id="node6" class="node">
<title>MailService</title>
<ellipse fill="#fdb462" stroke="black" cx="82" cy="-66.8" rx="58.46" ry="18"/>
<text text-anchor="middle" x="82" y="-62.6" font-family="Times,serif" font-size="14.00">MailService</text>
</g>
<!-- MailService&#45;&gt;CustomerModule -->
<g id="edge5" class="edge">
<title>MailService&#45;&gt;CustomerModule</title>
<path fill="none" stroke="black" d="M123.39,-79.64C123.39,-98.58 123.39,-131.8 123.39,-131.8 123.39,-131.8 168.71,-131.8 168.71,-131.8"/>
<polygon fill="black" stroke="black" points="168.71,-135.3 178.71,-131.8 168.71,-128.3 168.71,-135.3"/>
</g>
</g>
</svg>
